# xmcd
#
# Track frame offsets:
#	150
#	57547
#	90319
#	122661
#	154315
#	184074
#	211243
#	236454
#	259288
#	279113
#	298448
#	317650
#
# Disc length: 4453 seconds
#
# Revision: 1
# Processed by: cddbd v1.5.1PL0 Copyright (c) Steve Scherf et al.
# Submitted via: EasyCDDAExtractor 7.1.0.1
#
DISCID=af11630c
DTITLE=Freddy King - Are You Ready for Freddy?
DYEAR=2004
DGENRE=Blues
TTITLE0=Have You Ever Loved a Woman
TTITLE1=Mojo Boogie
TTITLE2=You're the One
TTITLE3=Signals of Love-TV Mama
TTITLE4=That's All Right
TTITLE5=Sweet Home Chicago
TTITLE6=Key to the Highway
TTITLE7=Rock Me Baby
TTITLE8=Hide Away
TTITLE9=Woman Across the River
TTITLE10=Going Down
TTITLE11=Please Accept My Love
EXTD=
EXTT0=
EXTT1=
EXTT2=
EXTT3=
EXTT4=
EXTT5=
EXTT6=
EXTT7=
EXTT8=
EXTT9=
EXTT10=
EXTT11=
PLAYORDER=
